<?xml version="1.0" encoding="UTF-8" standalone="no"?>
<!DOCTYPE svg PUBLIC "-//W3C//DTD SVG 1.1//EN"
 "http://www.w3.org/Graphics/SVG/1.1/DTD/svg11.dtd">
<!-- Generated by graphviz version 2.29.20120823.0446 (20120823.0446)
 -->
<!-- Title: m2html Pages: 1 -->
<svg width="490pt" height="260pt"
 viewBox="0.00 0.00 490.00 260.00" xmlns="http://www.w3.org/2000/svg" xmlns:xlink="http://www.w3.org/1999/xlink">
<g id="graph0" class="graph" transform="scale(1 1) rotate(0) translate(4 256)">
<title>m2html</title>
<polygon fill="white" stroke="white" points="-4,5 -4,-256 487,-256 487,5 -4,5"/>
<!-- GCTFModel -->
<g id="node1" class="node"><title>GCTFModel</title>
<g id="a_node1"><a xlink:href="GCTFModel.html" xlink:title="GCTFModel">
<ellipse fill="none" stroke="black" cx="400" cy="-234" rx="60.3914" ry="18"/>
<text text-anchor="middle" x="400" y="-229.8" font-family="Times,serif" font-size="14.00">GCTFModel</text>
</a>
</g>
</g>
<!-- GCTFModel&#45;&gt;GCTFModel -->
<g id="edge1" class="edge"><title>GCTFModel&#45;&gt;GCTFModel</title>
<path fill="none" stroke="black" d="M441.331,-247.203C460.854,-248.737 478,-244.336 478,-234 478,-225.521 466.462,-221.036 451.539,-220.545"/>
<polygon fill="black" stroke="black" points="451.241,-217.051 441.331,-220.797 451.414,-224.049 451.241,-217.051"/>
</g>
<!-- PLTFModel -->
<g id="node2" class="node"><title>PLTFModel</title>
<g id="a_node2"><a xlink:href="PLTFModel.html" xlink:title="PLTFModel">
<ellipse fill="none" stroke="black" cx="252" cy="-162" rx="58.1772" ry="18"/>
<text text-anchor="middle" x="252" y="-157.8" font-family="Times,serif" font-size="14.00">PLTFModel</text>
</a>
</g>
</g>
<!-- GCTFModel&#45;&gt;PLTFModel -->
<g id="edge2" class="edge"><title>GCTFModel&#45;&gt;PLTFModel</title>
<path fill="none" stroke="black" d="M368.974,-218.326C346.526,-207.708 316.002,-193.271 291.764,-181.807"/>
<polygon fill="black" stroke="black" points="293.014,-178.527 282.478,-177.415 290.021,-184.855 293.014,-178.527"/>
</g>
<!-- TFDimension -->
<g id="node3" class="node"><title>TFDimension</title>
<g id="a_node3"><a xlink:href="TFDimension.html" xlink:title="TFDimension">
<ellipse fill="none" stroke="black" cx="400" cy="-18" rx="64.5237" ry="18"/>
<text text-anchor="middle" x="400" y="-13.8" font-family="Times,serif" font-size="14.00">TFDimension</text>
</a>
</g>
</g>
<!-- GCTFModel&#45;&gt;TFDimension -->
<g id="edge3" class="edge"><title>GCTFModel&#45;&gt;TFDimension</title>
<path fill="none" stroke="black" d="M413.85,-216.127C431.617,-193.277 461.512,-150.452 473,-108 477.18,-92.5555 480.266,-86.2549 473,-72 466.007,-58.2821 453.619,-47.2839 441.011,-38.9397"/>
<polygon fill="black" stroke="black" points="442.662,-35.846 432.311,-33.5861 438.994,-41.8077 442.662,-35.846"/>
</g>
<!-- TFFactor -->
<g id="node4" class="node"><title>TFFactor</title>
<g id="a_node4"><a xlink:href="TFFactor.html" xlink:title="TFFactor">
<ellipse fill="none" stroke="black" cx="400" cy="-90" rx="46.4596" ry="18"/>
<text text-anchor="middle" x="400" y="-85.8" font-family="Times,serif" font-size="14.00">TFFactor</text>
</a>
</g>
</g>
<!-- GCTFModel&#45;&gt;TFFactor -->
<g id="edge4" class="edge"><title>GCTFModel&#45;&gt;TFFactor</title>
<path fill="none" stroke="black" d="M400,-215.871C400,-191.67 400,-147.211 400,-118.393"/>
<polygon fill="black" stroke="black" points="403.5,-118.189 400,-108.189 396.5,-118.189 403.5,-118.189"/>
</g>
<!-- GTMGraph -->
<g id="node5" class="node"><title>GTMGraph</title>
<g id="a_node5"><a xlink:href="GTMGraph.html" xlink:title="GTMGraph">
<ellipse fill="none" stroke="black" cx="56" cy="-90" rx="56.4313" ry="18"/>
<text text-anchor="middle" x="56" y="-85.8" font-family="Times,serif" font-size="14.00">GTMGraph</text>
</a>
</g>
</g>
<!-- PLTFModel&#45;&gt;GTMGraph -->
<g id="edge7" class="edge"><title>PLTFModel&#45;&gt;GTMGraph</title>
<path fill="none" stroke="black" d="M212.119,-148.647C179.001,-137.43 132.159,-120.774 98.3796,-108.246"/>
<polygon fill="black" stroke="black" points="99.3764,-104.882 88.7837,-104.666 96.9295,-111.441 99.3764,-104.882"/>
</g>
<!-- PLTFModel&#45;&gt;PLTFModel -->
<g id="edge8" class="edge"><title>PLTFModel&#45;&gt;PLTFModel</title>
<path fill="none" stroke="black" d="M291.882,-175.17C311.066,-176.796 328,-172.406 328,-162 328,-153.464 316.605,-148.976 301.92,-148.536"/>
<polygon fill="black" stroke="black" points="301.776,-145.038 291.882,-148.83 301.981,-152.035 301.776,-145.038"/>
</g>
<!-- PLTFModel&#45;&gt;TFDimension -->
<g id="edge9" class="edge"><title>PLTFModel&#45;&gt;TFDimension</title>
<path fill="none" stroke="black" d="M219.642,-146.733C204.03,-137.989 186.811,-125.148 178,-108 170.688,-93.7686 168.087,-84.5588 178,-72 196.789,-48.1973 272.47,-33.9113 330.295,-26.271"/>
<polygon fill="black" stroke="black" points="331.026,-29.7061 340.502,-24.966 330.139,-22.7626 331.026,-29.7061"/>
</g>
<!-- PLTFModel&#45;&gt;TFFactor -->
<g id="edge10" class="edge"><title>PLTFModel&#45;&gt;TFFactor</title>
<path fill="none" stroke="black" d="M282.666,-146.496C305.789,-135.559 337.629,-120.5 362.308,-108.828"/>
<polygon fill="black" stroke="black" points="363.839,-111.975 371.382,-104.536 360.846,-105.647 363.839,-111.975"/>
</g>
<!-- TFOCSCache -->
<g id="node6" class="node"><title>TFOCSCache</title>
<g id="a_node6"><a xlink:href="TFOCSCache.html" xlink:title="TFOCSCache">
<ellipse fill="none" stroke="black" cx="252" cy="-90" rx="65.3197" ry="18"/>
<text text-anchor="middle" x="252" y="-85.8" font-family="Times,serif" font-size="14.00">TFOCSCache</text>
</a>
</g>
</g>
<!-- PLTFModel&#45;&gt;TFOCSCache -->
<g id="edge11" class="edge"><title>PLTFModel&#45;&gt;TFOCSCache</title>
<path fill="none" stroke="black" d="M246.122,-144.055C245.304,-136.346 245.061,-127.027 245.395,-118.364"/>
<polygon fill="black" stroke="black" points="248.894,-118.491 246.087,-108.275 241.911,-118.012 248.894,-118.491"/>
</g>
<!-- TFDimension&#45;&gt;TFDimension -->
<g id="edge12" class="edge"><title>TFDimension&#45;&gt;TFDimension</title>
<path fill="none" stroke="black" d="M443.869,-31.233C464.219,-32.6766 482,-28.2656 482,-18 482,-9.49878 469.806,-5.0126 454.057,-4.54146"/>
<polygon fill="black" stroke="black" points="453.789,-1.04645 443.869,-4.76697 453.944,-8.04473 453.789,-1.04645"/>
</g>
<!-- TFFactor&#45;&gt;TFDimension -->
<g id="edge13" class="edge"><title>TFFactor&#45;&gt;TFDimension</title>
<path fill="none" stroke="black" d="M400,-71.6966C400,-63.9827 400,-54.7125 400,-46.1124"/>
<polygon fill="black" stroke="black" points="403.5,-46.1043 400,-36.1043 396.5,-46.1044 403.5,-46.1043"/>
</g>
<!-- TFFactor&#45;&gt;TFFactor -->
<g id="edge14" class="edge"><title>TFFactor&#45;&gt;TFFactor</title>
<path fill="none" stroke="black" d="M432.271,-103.025C448.958,-105.029 464,-100.688 464,-90 464,-81.5669 454.635,-77.0847 442.486,-76.5536"/>
<polygon fill="black" stroke="black" points="442.119,-73.0656 432.271,-76.9746 442.407,-80.0597 442.119,-73.0656"/>
</g>
<!-- GTMGraph&#45;&gt;GTMGraph -->
<g id="edge5" class="edge"><title>GTMGraph&#45;&gt;GTMGraph</title>
<path fill="none" stroke="black" d="M94.8329,-103.17C113.511,-104.796 130,-100.406 130,-90 130,-81.5449 119.115,-77.0614 105.014,-76.5495"/>
<polygon fill="black" stroke="black" points="104.733,-73.0558 94.8329,-76.8296 104.925,-80.0532 104.733,-73.0558"/>
</g>
<!-- GTMGraph&#45;&gt;PLTFModel -->
<g id="edge6" class="edge"><title>GTMGraph&#45;&gt;PLTFModel</title>
<path fill="none" stroke="black" d="M94.9853,-103.05C127.983,-114.212 175.058,-130.943 209.105,-143.563"/>
<polygon fill="black" stroke="black" points="208.188,-146.956 218.78,-147.17 210.633,-140.397 208.188,-146.956"/>
</g>
<!-- TFOCSCache&#45;&gt;PLTFModel -->
<g id="edge15" class="edge"><title>TFOCSCache&#45;&gt;PLTFModel</title>
<path fill="none" stroke="black" d="M257.913,-108.275C258.715,-116.03 258.94,-125.362 258.591,-134.005"/>
<polygon fill="black" stroke="black" points="255.094,-133.832 257.878,-144.055 262.077,-134.327 255.094,-133.832"/>
</g>
<!-- TFOCSCache&#45;&gt;TFOCSCache -->
<g id="edge16" class="edge"><title>TFOCSCache&#45;&gt;TFOCSCache</title>
<path fill="none" stroke="black" d="M296.404,-103.233C317.002,-104.677 335,-100.266 335,-90 335,-81.4988 322.657,-77.0126 306.716,-76.5415"/>
<polygon fill="black" stroke="black" points="306.325,-73.0491 296.404,-76.767 306.478,-80.0474 306.325,-73.0491"/>
</g>
</g>
</svg>
