<?xml version="1.0" encoding="UTF-8" standalone="no"?>
<!DOCTYPE svg PUBLIC "-//W3C//DTD SVG 1.1//EN"
 "http://www.w3.org/Graphics/SVG/1.1/DTD/svg11.dtd">
<!-- Generated by graphviz version 2.29.20120823.0446 (20120823.0446)
 -->
<!-- Title: structs Pages: 1 -->
<svg width="526pt" height="220pt"
 viewBox="0.00 0.00 526.00 220.00" xmlns="http://www.w3.org/2000/svg" xmlns:xlink="http://www.w3.org/1999/xlink">
<g id="graph0" class="graph" transform="scale(1 1) rotate(0) translate(4 216)">
<title>structs</title>
<polygon fill="white" stroke="white" points="-4,5 -4,-216 523,-216 523,5 -4,5"/>
<!-- struct1 -->
<g id="node1" class="node"><title>struct1</title>
<text text-anchor="start" x="38.5" y="-113.9" font-family="Times,serif" font-size="14.00">pqr </text>
<text text-anchor="start" x="14.5" y="-93.4" font-family="Times,serif" font-size="14.00" fill="green">ip</text>
<text text-anchor="start" x="25.3906" y="-93.4" font-family="Times,serif" font-size="14.00">, </text>
<text text-anchor="start" x="32.3906" y="-93.4" font-family="Times,serif" font-size="14.00" fill="green">jq</text>
<text text-anchor="start" x="43.2812" y="-93.4" font-family="Times,serif" font-size="14.00">, </text>
<text text-anchor="start" x="50.2812" y="-93.4" font-family="Times,serif" font-size="14.00" fill="green">kr</text>
<text text-anchor="start" x="61.9418" y="-93.4" font-family="Times,serif" font-size="14.00">, </text>
<text text-anchor="start" x="68.9418" y="-93.4" font-family="Times,serif" font-size="14.00" fill="green">pqr</text>
<polygon fill="black" stroke="black" points="9,-108 9,-108 90,-108 90,-108 9,-108"/>
<path fill="none" stroke="black" d="M20.5,-80.5C20.5,-80.5 77.5,-80.5 77.5,-80.5 83.5,-80.5 89.5,-86.5 89.5,-92.5 89.5,-92.5 89.5,-119.5 89.5,-119.5 89.5,-125.5 83.5,-131.5 77.5,-131.5 77.5,-131.5 20.5,-131.5 20.5,-131.5 14.5,-131.5 8.5,-125.5 8.5,-119.5 8.5,-119.5 8.5,-92.5 8.5,-92.5 8.5,-86.5 14.5,-80.5 20.5,-80.5"/>
</g>
<!-- struct2 -->
<g id="node2" class="node"><title>struct2</title>
<text text-anchor="start" x="206" y="-113.9" font-family="Times,serif" font-size="14.00">qr </text>
<text text-anchor="start" x="188.5" y="-93.4" font-family="Times,serif" font-size="14.00">jq</text>
<text text-anchor="start" x="199.391" y="-93.4" font-family="Times,serif" font-size="14.00">, </text>
<text text-anchor="start" x="206.391" y="-93.4" font-family="Times,serif" font-size="14.00">kr</text>
<text text-anchor="start" x="218.051" y="-93.4" font-family="Times,serif" font-size="14.00">, </text>
<text text-anchor="start" x="225.051" y="-93.4" font-family="Times,serif" font-size="14.00" fill="red">iqr</text>
<polygon fill="black" stroke="black" points="183,-108 183,-108 244,-108 244,-108 183,-108"/>
<path fill="none" stroke="black" d="M194.5,-80.5C194.5,-80.5 231.5,-80.5 231.5,-80.5 237.5,-80.5 243.5,-86.5 243.5,-92.5 243.5,-92.5 243.5,-119.5 243.5,-119.5 243.5,-125.5 237.5,-131.5 231.5,-131.5 231.5,-131.5 194.5,-131.5 194.5,-131.5 188.5,-131.5 182.5,-125.5 182.5,-119.5 182.5,-119.5 182.5,-92.5 182.5,-92.5 182.5,-86.5 188.5,-80.5 194.5,-80.5"/>
</g>
<!-- struct1&#45;&gt;struct2 -->
<g id="edge1" class="edge"><title>struct1&#45;&gt;struct2</title>
<path fill="none" stroke="blue" stroke-dasharray="5,2" d="M97.7291,-106C118.648,-106 143.15,-106 164.089,-106"/>
<polygon fill="blue" stroke="blue" points="164.363,-109.5 174.363,-106 164.363,-102.5 164.363,-109.5"/>
<text text-anchor="middle" x="135" y="-110.2" font-family="Times,serif" font-size="14.00">p(450)</text>
</g>
<!-- struct3 -->
<g id="node3" class="node"><title>struct3</title>
<text text-anchor="start" x="206" y="-190.9" font-family="Times,serif" font-size="14.00">pr </text>
<text text-anchor="start" x="188.5" y="-170.4" font-family="Times,serif" font-size="14.00">ip</text>
<text text-anchor="start" x="199.391" y="-170.4" font-family="Times,serif" font-size="14.00">, </text>
<text text-anchor="start" x="206.391" y="-170.4" font-family="Times,serif" font-size="14.00">kr</text>
<text text-anchor="start" x="218.051" y="-170.4" font-family="Times,serif" font-size="14.00">, </text>
<text text-anchor="start" x="225.051" y="-170.4" font-family="Times,serif" font-size="14.00" fill="red">jpr</text>
<polygon fill="black" stroke="black" points="183,-185 183,-185 244,-185 244,-185 183,-185"/>
<path fill="none" stroke="black" d="M194.5,-157.5C194.5,-157.5 231.5,-157.5 231.5,-157.5 237.5,-157.5 243.5,-163.5 243.5,-169.5 243.5,-169.5 243.5,-196.5 243.5,-196.5 243.5,-202.5 237.5,-208.5 231.5,-208.5 231.5,-208.5 194.5,-208.5 194.5,-208.5 188.5,-208.5 182.5,-202.5 182.5,-196.5 182.5,-196.5 182.5,-169.5 182.5,-169.5 182.5,-163.5 188.5,-157.5 194.5,-157.5"/>
</g>
<!-- struct1&#45;&gt;struct3 -->
<g id="edge2" class="edge"><title>struct1&#45;&gt;struct3</title>
<path fill="none" stroke="black" d="M97.7291,-128.686C119.03,-138.811 144.046,-150.701 165.233,-160.771"/>
<polygon fill="black" stroke="black" points="163.829,-163.979 174.363,-165.111 166.834,-157.657 163.829,-163.979"/>
<text text-anchor="middle" x="135" y="-158.2" font-family="Times,serif" font-size="14.00">q(480)</text>
</g>
<!-- struct4 -->
<g id="node4" class="node"><title>struct4</title>
<text text-anchor="start" x="204.5" y="-36.9" font-family="Times,serif" font-size="14.00">pq </text>
<text text-anchor="start" x="185.5" y="-16.4" font-family="Times,serif" font-size="14.00">ip</text>
<text text-anchor="start" x="196.391" y="-16.4" font-family="Times,serif" font-size="14.00">, </text>
<text text-anchor="start" x="203.391" y="-16.4" font-family="Times,serif" font-size="14.00">jq</text>
<text text-anchor="start" x="214.281" y="-16.4" font-family="Times,serif" font-size="14.00">, </text>
<text text-anchor="start" x="221.281" y="-16.4" font-family="Times,serif" font-size="14.00" fill="red">kpq</text>
<polygon fill="black" stroke="black" points="180,-31 180,-31 246,-31 246,-31 180,-31"/>
<path fill="none" stroke="black" d="M192,-3.5C192,-3.5 234,-3.5 234,-3.5 240,-3.5 246,-9.5 246,-15.5 246,-15.5 246,-42.5 246,-42.5 246,-48.5 240,-54.5 234,-54.5 234,-54.5 192,-54.5 192,-54.5 186,-54.5 180,-48.5 180,-42.5 180,-42.5 180,-15.5 180,-15.5 180,-9.5 186,-3.5 192,-3.5"/>
</g>
<!-- struct1&#45;&gt;struct4 -->
<g id="edge3" class="edge"><title>struct1&#45;&gt;struct4</title>
<path fill="none" stroke="black" d="M97.7291,-83.3139C118.206,-73.5811 142.116,-62.2162 162.758,-52.4052"/>
<polygon fill="black" stroke="black" points="164.458,-55.4723 171.988,-48.0183 161.453,-49.1501 164.458,-55.4723"/>
<text text-anchor="middle" x="135" y="-79.2" font-family="Times,serif" font-size="14.00">r(504)</text>
</g>
<!-- struct5 -->
<g id="node5" class="node"><title>struct5</title>
<text text-anchor="start" x="355.5" y="-190.9" font-family="Times,serif" font-size="14.00">r </text>
<text text-anchor="start" x="344.5" y="-170.4" font-family="Times,serif" font-size="14.00">kr</text>
<text text-anchor="start" x="356.161" y="-170.4" font-family="Times,serif" font-size="14.00">, </text>
<text text-anchor="start" x="363.161" y="-170.4" font-family="Times,serif" font-size="14.00" fill="red">ijr</text>
<polygon fill="black" stroke="black" points="339,-185 339,-185 380,-185 380,-185 339,-185"/>
<path fill="none" stroke="black" d="M350.5,-157.5C350.5,-157.5 367.5,-157.5 367.5,-157.5 373.5,-157.5 379.5,-163.5 379.5,-169.5 379.5,-169.5 379.5,-196.5 379.5,-196.5 379.5,-202.5 373.5,-208.5 367.5,-208.5 367.5,-208.5 350.5,-208.5 350.5,-208.5 344.5,-208.5 338.5,-202.5 338.5,-196.5 338.5,-196.5 338.5,-169.5 338.5,-169.5 338.5,-163.5 344.5,-157.5 350.5,-157.5"/>
</g>
<!-- struct2&#45;&gt;struct5 -->
<g id="edge4" class="edge"><title>struct2&#45;&gt;struct5</title>
<path fill="none" stroke="blue" stroke-dasharray="5,2" d="M251.834,-126.231C273.32,-137.72 300.091,-152.035 321.374,-163.415"/>
<polygon fill="blue" stroke="blue" points="319.958,-166.627 330.427,-168.256 323.259,-160.454 319.958,-166.627"/>
<text text-anchor="middle" x="291" y="-132.2" font-family="Times,serif" font-size="14.00">q(750)</text>
</g>
<!-- struct6 -->
<g id="node6" class="node"><title>struct6</title>
<text text-anchor="start" x="354.5" y="-36.9" font-family="Times,serif" font-size="14.00">q </text>
<text text-anchor="start" x="342.5" y="-16.4" font-family="Times,serif" font-size="14.00">jq</text>
<text text-anchor="start" x="353.391" y="-16.4" font-family="Times,serif" font-size="14.00">, </text>
<text text-anchor="start" x="360.391" y="-16.4" font-family="Times,serif" font-size="14.00" fill="red">ikq</text>
<polygon fill="black" stroke="black" points="337,-31 337,-31 382,-31 382,-31 337,-31"/>
<path fill="none" stroke="black" d="M348.5,-3.5C348.5,-3.5 369.5,-3.5 369.5,-3.5 375.5,-3.5 381.5,-9.5 381.5,-15.5 381.5,-15.5 381.5,-42.5 381.5,-42.5 381.5,-48.5 375.5,-54.5 369.5,-54.5 369.5,-54.5 348.5,-54.5 348.5,-54.5 342.5,-54.5 336.5,-48.5 336.5,-42.5 336.5,-42.5 336.5,-15.5 336.5,-15.5 336.5,-9.5 342.5,-3.5 348.5,-3.5"/>
</g>
<!-- struct2&#45;&gt;struct6 -->
<g id="edge6" class="edge"><title>struct2&#45;&gt;struct6</title>
<path fill="none" stroke="black" d="M251.834,-85.7692C272.594,-74.6683 298.288,-60.9294 319.198,-49.7481"/>
<polygon fill="black" stroke="black" points="320.968,-52.771 328.136,-44.9691 317.667,-46.5981 320.968,-52.771"/>
<text text-anchor="middle" x="291" y="-85.2" font-family="Times,serif" font-size="14.00">r(765)</text>
</g>
<!-- struct3&#45;&gt;struct5 -->
<g id="edge5" class="edge"><title>struct3&#45;&gt;struct5</title>
<path fill="none" stroke="black" d="M251.834,-183C272.935,-183 299.132,-183 320.223,-183"/>
<polygon fill="black" stroke="black" points="320.427,-186.5 330.427,-183 320.427,-179.5 320.427,-186.5"/>
<text text-anchor="middle" x="291" y="-188.2" font-family="Times,serif" font-size="14.00">p(780)</text>
</g>
<!-- struct7 -->
<g id="node7" class="node"><title>struct7</title>
<text text-anchor="start" x="354.5" y="-113.9" font-family="Times,serif" font-size="14.00">p </text>
<text text-anchor="start" x="342.5" y="-93.4" font-family="Times,serif" font-size="14.00">ip</text>
<text text-anchor="start" x="353.391" y="-93.4" font-family="Times,serif" font-size="14.00">, </text>
<text text-anchor="start" x="360.391" y="-93.4" font-family="Times,serif" font-size="14.00" fill="red">jkp</text>
<polygon fill="black" stroke="black" points="337,-108 337,-108 382,-108 382,-108 337,-108"/>
<path fill="none" stroke="black" d="M348.5,-80.5C348.5,-80.5 369.5,-80.5 369.5,-80.5 375.5,-80.5 381.5,-86.5 381.5,-92.5 381.5,-92.5 381.5,-119.5 381.5,-119.5 381.5,-125.5 375.5,-131.5 369.5,-131.5 369.5,-131.5 348.5,-131.5 348.5,-131.5 342.5,-131.5 336.5,-125.5 336.5,-119.5 336.5,-119.5 336.5,-92.5 336.5,-92.5 336.5,-86.5 342.5,-80.5 348.5,-80.5"/>
</g>
<!-- struct3&#45;&gt;struct7 -->
<g id="edge8" class="edge"><title>struct3&#45;&gt;struct7</title>
<path fill="none" stroke="black" d="M251.834,-162.769C272.594,-151.668 298.288,-137.929 319.198,-126.748"/>
<polygon fill="black" stroke="black" points="320.968,-129.771 328.136,-121.969 317.667,-123.598 320.968,-129.771"/>
<text text-anchor="middle" x="291" y="-163.2" font-family="Times,serif" font-size="14.00">r(816)</text>
</g>
<!-- struct4&#45;&gt;struct6 -->
<g id="edge7" class="edge"><title>struct4&#45;&gt;struct6</title>
<path fill="none" stroke="black" d="M254.112,-29C274.096,-29 298.188,-29 318.138,-29"/>
<polygon fill="black" stroke="black" points="318.149,-32.5001 328.149,-29 318.149,-25.5001 318.149,-32.5001"/>
<text text-anchor="middle" x="291" y="-12.2" font-family="Times,serif" font-size="14.00">p(819)</text>
</g>
<!-- struct4&#45;&gt;struct7 -->
<g id="edge9" class="edge"><title>struct4&#45;&gt;struct7</title>
<path fill="none" stroke="black" d="M254.112,-50.4488C274.463,-61.331 299.074,-74.4908 319.232,-85.2699"/>
<polygon fill="black" stroke="black" points="317.681,-88.4092 328.149,-90.0382 320.981,-82.2363 317.681,-88.4092"/>
<text text-anchor="middle" x="291" y="-48.2" font-family="Times,serif" font-size="14.00">q(840)</text>
</g>
<!-- struct8 -->
<g id="node8" class="node"><title>struct8</title>
<text text-anchor="start" x="484.5" y="-113.9" font-family="Times,serif" font-size="14.00">∅ </text>
<text text-anchor="start" x="484.5" y="-93.4" font-family="Times,serif" font-size="14.00" fill="green">ijk</text>
<polygon fill="black" stroke="black" points="479,-108 479,-108 504,-108 504,-108 479,-108"/>
<path fill="none" stroke="black" d="M486.833,-80.5C486.833,-80.5 495.167,-80.5 495.167,-80.5 499.333,-80.5 503.5,-84.6667 503.5,-88.8333 503.5,-88.8333 503.5,-123.167 503.5,-123.167 503.5,-127.333 499.333,-131.5 495.167,-131.5 495.167,-131.5 486.833,-131.5 486.833,-131.5 482.667,-131.5 478.5,-127.333 478.5,-123.167 478.5,-123.167 478.5,-88.8333 478.5,-88.8333 478.5,-84.6667 482.667,-80.5 486.833,-80.5"/>
</g>
<!-- struct5&#45;&gt;struct8 -->
<g id="edge10" class="edge"><title>struct5&#45;&gt;struct8</title>
<path fill="none" stroke="blue" stroke-dasharray="5,2" d="M387.57,-166.67C407.265,-155.005 433.915,-139.22 455.094,-126.675"/>
<polygon fill="blue" stroke="blue" points="456.98,-129.626 463.8,-121.518 453.412,-123.603 456.98,-129.626"/>
<text text-anchor="middle" x="427" y="-158.2" font-family="Times,serif" font-size="14.00">r(750)</text>
</g>
<!-- struct6&#45;&gt;struct8 -->
<g id="edge11" class="edge"><title>struct6&#45;&gt;struct8</title>
<path fill="none" stroke="black" d="M389.825,-46.6654C409.284,-58.1911 434.761,-73.2818 455.153,-85.3598"/>
<polygon fill="black" stroke="black" points="453.448,-88.4177 463.836,-90.5026 457.015,-82.3949 453.448,-88.4177"/>
<text text-anchor="middle" x="427" y="-83.2" font-family="Times,serif" font-size="14.00">q(765)</text>
</g>
<!-- struct7&#45;&gt;struct8 -->
<g id="edge12" class="edge"><title>struct7&#45;&gt;struct8</title>
<path fill="none" stroke="black" d="M389.825,-106C408.847,-106 433.622,-106 453.774,-106"/>
<polygon fill="black" stroke="black" points="453.836,-109.5 463.836,-106 453.835,-102.5 453.836,-109.5"/>
<text text-anchor="middle" x="427" y="-110.2" font-family="Times,serif" font-size="14.00">p(816)</text>
</g>
</g>
</svg>
